<?xml version="1.0" encoding="utf-8"?>
<!-- Generator: Adobe Illustrator 24.1.2, SVG Export Plug-In . SVG Version: 6.00 Build 0)  -->
<svg version="1.1"
	 id="svg1333" xmlns:cc="http://creativecommons.org/ns#" xmlns:dc="http://purl.org/dc/elements/1.1/" xmlns:inkscape="http://www.inkscape.org/namespaces/inkscape" xmlns:rdf="http://www.w3.org/1999/02/22-rdf-syntax-ns#" xmlns:sodipodi="http://sodipodi.sourceforge.net/DTD/sodipodi-0.dtd" xmlns:svg="http://www.w3.org/2000/svg"
	 xmlns="http://www.w3.org/2000/svg" xmlns:xlink="http://www.w3.org/1999/xlink" x="0px" y="0px" width="400px" height="120px"
	 viewBox="0 0 400 120" style="enable-background:new 0 0 400 120;" xml:space="preserve">
<style type="text/css">
	.st0{fill:#691640;}
	.st1{fill:#C20A66;}
	.st2{fill:#B81466;}
	.st3{fill:#99004D;}
	.st4{fill:#FFFFFF;}
</style>
<sodipodi:namedview  bordercolor="#666666" borderopacity="1" gridtolerance="10" guidetolerance="10" id="namedview1335" inkscape:current-layer="svg1333" inkscape:cx="207.61177" inkscape:cy="154.00726" inkscape:pageopacity="0" inkscape:pageshadow="2" inkscape:window-height="1368" inkscape:window-maximized="0" inkscape:window-width="1718" inkscape:window-x="1713" inkscape:window-y="0" inkscape:zoom="2.36" objecttolerance="10" pagecolor="#ffffff" showgrid="false">
	</sodipodi:namedview>
<g id="g1327">
	<path id="path1315" class="st0" d="M400,0L0,0v120h400V0z"/>
	<g id="g1325">
		<path id="path1317" class="st1" d="M171.9,0L310,0c0,0-82.4,28.3-80.9,43C203.6,37.1,182.7,21.1,171.9,0L171.9,0z M229.1,43
			c3.3,32.8,83.1,77,138.4,77H400c0,0-94.3-64.8,0-120C400,0,257.8,49.4,229.1,43L229.1,43z"/>
		<path id="path1319" class="st2" d="M200,120L0,120l0-79.1c0,0,21.2,19,40.9-25.3C70.1,20.9,151.1,34.6,218.2,120L200,120z"/>
		<path id="path1321" class="st3" d="M0.3,78.7c68.6,1.3,122.9,3.4,145.3,41.6L0,120L0.3,78.7z"/>
		<path id="path1323" class="st3" d="M400,0c-14.7,12.8-126.3,45.4-149.3,45.4c-7.5,0-14.7-0.8-21.6-2.4c-0.3-2.7-0.4-5.5-0.4-8.2
			c0-12.3,2.7-24,7.7-34.7L310,0L400,0z"/>
	</g>
</g>
<path class="st4" d="M240,55c0,22.1-17.9,40-40,40c-22.1,0-40-17.9-40-40c0-22.1,17.9-40,40-40C222.1,15,240,32.9,240,55z"/>
<path class="st0" d="M198.5,44.6c0,2.5-1.2,4.9-4.2,6.3c3.8,1.2,5.2,5.2,5.2,7.3c0,7.3-5.4,9.6-12.2,9.6c-5.2,0-10.3,0-15.4,0V35.1
	c5.1,0,10.3,0,15.4,0C193.7,35.1,198.5,38,198.5,44.6z M177.9,48.2h9.4c3.9,0,5.1-1.6,5.1-3.5c0-1.5-1.2-4-5.1-4h-9.4V48.2z
	 M177.9,62h9.4c2.5,0,6.1-0.8,6.1-3.9c0-2.9-3.6-4.5-6.1-4.5h-9.4V62z"/>
<path class="st0" d="M224,42.3l4.2,3.2l-2.9,3.3c2,2.4,2.6,4.5,2.6,6.8c0,4.1-1.9,6.9-5.7,8.6c4.9,1.8,5.7,5.2,5.7,7.4
	c0,6.5-6.4,9.7-12.5,9.7c-7.9,0-12.6-4-12.4-10.6h5.6c-0.2,3.2,3.2,5,6.7,5.1c3.2,0,6.6-1.4,6.6-4.2c0-2.7-2.2-4.5-6.5-4.5
	c-7.6,0-12.5-4.4-12.5-11.5c0-7.7,6.1-11.6,12.5-11.6c1.8,0,4.3,0.4,5.9,1.4L224,42.3z M208.7,55.6c0,4,3.2,6.3,6.9,6.3
	c3.7,0,6.7-2.4,6.7-6.3c0-3.9-3-6.4-6.7-6.4C211.8,49.3,208.7,51.4,208.7,55.6z"/>
</svg>
