<?xml version="1.0" encoding="UTF-8"?>
<svg width="400" height="120" version="1.1" viewBox="0 0 105.83 31.75" xmlns="http://www.w3.org/2000/svg" xmlns:cc="http://creativecommons.org/ns#" xmlns:dc="http://purl.org/dc/elements/1.1/" xmlns:rdf="http://www.w3.org/1999/02/22-rdf-syntax-ns#">
 <metadata>
  <rdf:RDF>
   <cc:Work rdf:about="">
    <dc:format>image/svg+xml</dc:format>
    <dc:type rdf:resource="http://purl.org/dc/dcmitype/StillImage"/>
    <dc:title/>
   </cc:Work>
  </rdf:RDF>
 </metadata>
 <g>
  <path d="m105.83 6.7717e-6 -105.83-6.7717e-6v31.75h105.83z" fill="#166969" stroke-width=".26458"/>
  <g stroke-width=".26458">
   <path d="m45.488 0.0014879 36.534-0.00148s-21.792 7.4929-21.409 11.366c-6.7421-1.5529-12.279-5.7904-15.125-11.364zm15.125 11.364c0.87141 8.6683 21.974 20.384 36.63 20.384h8.5896s-24.962-17.147 0-31.75c0 0-37.617 13.082-45.22 11.366z" fill="#3df5f5"/>
   <path d="m52.915 31.749-52.914 0.0013-0.0017481-20.926s5.6123 5.0229 10.824-6.7042c7.7248 1.4091 29.162 5.043 46.911 27.628z" fill="#47ebeb"/>
   <path d="m0.066476 20.829c18.138 0.3507 32.516 0.90517 38.456 11.015l-38.522-0.093524z" fill="#0cc"/>
   <path d="m105.83 6.7717e-6c-3.9004 3.3909-33.429 12.01-39.501 12.011-1.9747 9.7e-5 -3.8909-0.22404-5.7191-0.64515-0.07225-0.71856-0.11498-1.4447-0.1151-2.1802-2.2e-4 -3.2538 0.72521-6.3549 2.0334-9.1846l19.491-7.757e-4z" fill="#0cc"/>
  </g>
 </g>
 <path d="m63.501 14.287c2.08e-4 5.845-4.7379 10.584-10.583 10.584-5.845 2.09e-4 -10.584-4.7378-10.584-10.583-2.71e-4 -5.845 4.7379-10.584 10.583-10.584 5.845-2.708e-4 10.584 4.7379 10.584 10.583z" fill="#fff" stroke-width=".26458"/>
 <path d="m56.885 19.579-7.9368 4.24e-4c0-3.5226-6.1e-4 -7.0602-6.1e-4 -10.583l7.9368-4.23e-4 5e-5 1.9352-5.9523 2.25e-4v2.4341l5.7404-2.24e-4 5e-5 1.8595-5.7404 2.25e-4v2.3886l5.9523-2.24e-4z" fill="#166169" stroke-width=".26458"/>
</svg>
