<svg width="21" height="20" viewBox="0 0 21 20" fill="none" xmlns="http://www.w3.org/2000/svg">
<path d="M16.0044 5.67893L15.8533 5.52726C14.4378 4.11226 12.5566 3.33337 10.5555 3.33337C8.55442 3.33337 6.67331 4.11226 5.25775 5.52726L5.1072 5.67782C3.61921 7.16659 3.08714 8.33664 1.9167 9.15714C1.44949 9.48466 1.44949 10.5154 1.9167 10.8429C3.0871 11.6634 3.61905 12.8332 5.10664 14.3212L5.25775 14.4728C6.67331 15.8878 8.55442 16.6667 10.5555 16.6667C12.5566 16.6667 14.4378 15.8878 15.8533 14.4728L16.0039 14.3223C17.4732 12.8521 17.8757 11.6928 18.9341 10.8739C19.3854 10.5248 19.3854 9.47527 18.9341 9.12615C17.8757 8.30735 17.4734 7.14826 16.0044 5.67893ZM10.5555 15.5556C7.4922 15.5556 4.99997 13.0634 4.99997 10C4.99997 6.93671 7.4922 4.44449 10.5555 4.44449C13.6189 4.44449 16.1111 6.93671 16.1111 10C16.1111 13.0634 13.6189 15.5556 10.5555 15.5556Z" fill="black"/>
<path d="M8.33331 9.99999C8.33331 8.22276 9.18497 6.58665 10.5572 5.55554C10.5566 5.55554 10.5561 5.55554 10.5555 5.55554C8.10497 5.55554 6.11108 7.54943 6.11108 9.99999C6.11108 12.4505 8.10497 14.4444 10.5555 14.4444C10.5561 14.4444 10.5566 14.4444 10.5572 14.4444C9.18497 13.4133 8.33331 11.7772 8.33331 9.99999Z" fill="black"/>
<path d="M12.2318 5.88611C10.5601 6.56055 9.44458 8.18389 9.44458 10C9.44458 11.8161 10.5601 13.4394 12.2318 14.1139C13.8535 13.4506 15.0001 11.8578 15.0001 10C15.0001 8.14222 13.8535 6.54944 12.2318 5.88611Z" fill="black"/>
<path d="M10 0.555556C10 0.86238 10.2487 1.11111 10.5556 1.11111C10.8624 1.11111 11.1111 0.86238 11.1111 0.555556C11.1111 0.248731 10.8624 0 10.5556 0C10.2487 0 10 0.248731 10 0.555556Z" fill="black"/>
<path d="M10 19.4445C10 19.7513 10.2487 20 10.5556 20C10.8624 20 11.1111 19.7513 11.1111 19.4445C11.1111 19.1376 10.8624 18.8889 10.5556 18.8889C10.2487 18.8889 10 19.1376 10 19.4445Z" fill="black"/>
<path d="M3.88853 2.54754L3.56327 2.22228C3.34631 2.00532 2.99455 2.00532 2.7776 2.22228C2.56064 2.43923 2.56064 2.79099 2.7776 3.00795L3.10286 3.33321C3.31982 3.55017 3.67158 3.55017 3.88853 3.33321C4.10549 3.11626 4.10549 2.7645 3.88853 2.54754Z" fill="black"/>
<path d="M18.3329 16.992L18.0076 16.6667C17.7906 16.4498 17.4389 16.4498 17.2219 16.6667C17.005 16.8837 17.005 17.2354 17.2219 17.4524L17.5472 17.7777C17.7642 17.9946 18.1159 17.9946 18.3329 17.7777C18.5498 17.5607 18.5498 17.209 18.3329 16.992Z" fill="black"/>
<path d="M17.5474 2.22245L17.2222 2.54772C17.0052 2.76467 17.0052 3.11643 17.2222 3.33339C17.4391 3.55034 17.7909 3.55034 18.0078 3.33339L18.3331 3.00812C18.5501 2.79116 18.5501 2.43941 18.3331 2.22245C18.1162 2.0055 17.7644 2.0055 17.5474 2.22245Z" fill="black"/>
<path d="M3.10286 16.6667L2.7776 16.9919C2.56064 17.2089 2.56064 17.5606 2.7776 17.7776C2.99455 17.9946 3.34631 17.9946 3.56327 17.7776L3.88853 17.4523C4.10549 17.2354 4.10549 16.8836 3.88853 16.6667C3.67158 16.4497 3.31982 16.4497 3.10286 16.6667Z" fill="black"/>
</svg>
