<?xml version="1.0" encoding="UTF-8"?>
<svg width="400" height="120" version="1.1" viewBox="0 0 105.83 31.75" xmlns="http://www.w3.org/2000/svg" xmlns:cc="http://creativecommons.org/ns#" xmlns:dc="http://purl.org/dc/elements/1.1/" xmlns:rdf="http://www.w3.org/1999/02/22-rdf-syntax-ns#">
 <metadata>
  <rdf:RDF>
   <cc:Work rdf:about="">
    <dc:format>image/svg+xml</dc:format>
    <dc:type rdf:resource="http://purl.org/dc/dcmitype/StillImage"/>
    <dc:title/>
   </cc:Work>
  </rdf:RDF>
 </metadata>
 <g stroke-width=".26458">
  <path d="m105.83 6.7717e-6 -105.83-6.7717e-6v31.75h105.83z" fill="#621669"/>
  <path d="m45.488 0.0014879 36.534-0.00148s-21.792 7.4929-21.409 11.366c-6.7421-1.5529-12.279-5.7904-15.125-11.364zm15.125 11.364c0.87141 8.6683 21.974 20.384 36.63 20.384h8.5896s-24.962-17.147 0-31.75c0 0-37.617 13.082-45.22 11.366z" fill="#d65ae2"/>
  <path d="m52.915 31.749-52.914 0.0013-0.0017481-20.926s5.6123 5.0229 10.824-6.7042c7.7248 1.4091 29.162 5.043 46.911 27.628z" fill="#ca69d3"/>
  <path d="m0.066476 20.829c18.138 0.3507 32.516 0.90517 38.456 11.015l-38.522-0.093524z" fill="#883d8f"/>
  <path d="m105.83 6.7717e-6c-3.9004 3.3909-33.429 12.01-39.501 12.011-1.9747 9.7e-5 -3.8909-0.22404-5.7191-0.64515-0.07225-0.71856-0.11498-1.4447-0.1151-2.1802-2.2e-4 -3.2538 0.72521-6.3549 2.0334-9.1846l19.491-7.757e-4z" fill="#96439d"/>
 </g>
 <path d="m63.498 14.287c2.1e-4 5.845-4.7379 10.584-10.583 10.584-5.845 2.08e-4 -10.584-4.7377-10.584-10.583-2.09e-4 -5.845 4.7379-10.584 10.583-10.584 5.845-2.08e-4 10.584 4.7379 10.584 10.583z" fill="#fff"/>
 <path d="m56.606 11.849-3.5283 4.6925h-0.40185l-3.4506-4.7071 4.35e-4 7.8552-2.042 1.13e-4 -4.34e-4 -10.803 2.3519-1.11e-4 3.389 4.6456 3.3873-4.6458 2.3369-1.1e-4 4.2e-4 10.803-2.042 1.09e-4z" fill="#621669"/>
</svg>
