<?xml version="1.0" encoding="UTF-8"?>
<svg width="512" height="512" fill="none" version="1.1" viewBox="0 0 512 512" xmlns="http://www.w3.org/2000/svg">
 <g>
  <path d="m512 1.13e-4 -512-1.13e-4v512h512z" fill="#83038e"/>
  <path d="m177 0h156c-12 28.9-18.7 60.7-18.7 94 0 7.5 0.402 15 1.1 22.3-61.9-15.9-113-59.3-139-116zm191 123c-18.1 0-35.7-2.3-52.5-6.6 9.79 109 90.9 198 196 218v-269c-37.5 35.3-88.1 57-144 57z" fill="#ca09db"/>
  <path d="m512 65.8c-37.6 35.4-88.1 57.1-144 57.1-18.1 0-35.7-2.3-52.5-6.6-0.699-7.4-1.1-14.8-1.1-22.3 0-33.3 6.69-65 18.7-94h179z" fill="#a407b2"/>
  <path d="m343 512h-75.2c-13.2-74-77.8-130-156-130-44 0-83.8 18-112 47.1v-246c185 0 336 146 343 329z" fill="#ca09db"/>
  <path d="m0.199 429c28.7-29 68.5-47 112-47.1 77.8 0 142 56.2 156 130h-268z" fill="#a407b2"/>
  <path d="m422 256c0 91.6-74.3 166-166 166-91.6 0-166-74.4-166-166 0-91.6 74.4-166 166-166 91.5 0 166 74.4 166 166z" fill="#fff"/>
  <path d="m311 210c-10.6-21.6-33.2-27.8-55-27.8-25.8 0.2-54.2 12-54.2 40.8 0 31.4 26.4 39 55 42.4 18.6 2 32.4 7.4 32.4 20.6 0 15.2-15.6 21-32.2 21-17 0-33.2-6.8-39.4-22.2l-22 11.4c10.4 25.6 32.4 34.4 61 34.4 31.2 0 58.8-13.4 58.8-44.6 0-33.4-27.2-41-56.4-44.6-16.8-2-31.2-5.4-31.2-17.6 0-10.4 9.39-18.6 29-18.6 15.2 0 28.4 7.6 33.2 15.6z" fill="#83038e"/>
 </g>
</svg>
